<svg width="73" height="45" viewBox="0 0 73 45" fill="none" xmlns="http://www.w3.org/2000/svg">
<path style="mix-blend-mode:multiply" opacity="0.31" d="M36.938 10.9261L0 22.6698L22.7559 42.9492L63.5517 7.64899L36.938 10.9261Z" fill="url(#paint0_linear)"/>
<path style="mix-blend-mode:screen" opacity="0.15" d="M72.3864 0L7.30385 30.9977L8.38844 25.9469L1.62689 21.9838L72.3864 0Z" fill="url(#paint1_linear)"/>
<path d="M72.3864 0L23.9503 35.0993L32.4761 44.7922L42.0383 45L72.3864 0Z" fill="url(#paint2_linear)"/>
<path d="M72.3864 0L35.318 17.5843L38.8326 29.0162L72.3864 0Z" fill="#644C99"/>
<g style="mix-blend-mode:multiply">
<path d="M72.3864 0L35.318 17.5843L38.8326 29.0162L72.3864 0Z" fill="#533E80"/>
</g>
<g style="mix-blend-mode:multiply">
<path d="M72.3863 0L35.3179 17.5843L29.1399 18.0069L25.4879 14.5982L72.3863 0Z" fill="#644C99"/>
</g>
<path d="M72.3864 0L42.3541 21.7136L38.8326 29.0162L72.3864 0Z" fill="#312783"/>
<g style="mix-blend-mode:multiply">
<path d="M72.3864 0L42.3541 21.7136L38.8326 29.0162L72.3864 0Z" fill="#644C99"/>
</g>
<path opacity="0.66" d="M52.7881 29.0369L47.0357 26.9169L42.3541 21.7136L38.8326 29.0162L35.3179 17.5843L29.1399 18.0069L25.4879 14.5981L29.2772 17.9099L35.4209 17.5427L38.8669 28.545L42.3541 21.7136L47.0494 26.6951L52.7881 29.0369Z" fill="#00A19A"/>
<path d="M72.3864 0L42.3541 21.7136L47.0357 26.9169L52.7882 29.037L72.3864 0Z" fill="#644C99"/>
<defs>
<linearGradient id="paint0_linear" x1="0" y1="25.3026" x2="63.5517" y2="25.3026" gradientUnits="userSpaceOnUse">
<stop stop-color="white"/>
<stop offset="0.21" stop-color="#FCFCFC"/>
<stop offset="0.37" stop-color="#F2F2F2"/>
<stop offset="0.52" stop-color="#E1E1E1"/>
<stop offset="0.67" stop-color="#C9C9C9"/>
<stop offset="0.8" stop-color="#ABAAAA"/>
<stop offset="0.93" stop-color="#868585"/>
<stop offset="1" stop-color="#706F6F"/>
</linearGradient>
<linearGradient id="paint1_linear" x1="1.62689" y1="15.4988" x2="72.3864" y2="15.4988" gradientUnits="userSpaceOnUse">
<stop stop-color="white"/>
<stop offset="0.05" stop-color="#FCFBFD"/>
<stop offset="0.09" stop-color="#F3F1F7"/>
<stop offset="0.13" stop-color="#E3DEEC"/>
<stop offset="0.17" stop-color="#CDC5DE"/>
<stop offset="0.21" stop-color="#B0A4CB"/>
<stop offset="0.25" stop-color="#8D7CB4"/>
<stop offset="0.28" stop-color="#644C99"/>
</linearGradient>
<linearGradient id="paint2_linear" x1="23.9503" y1="22.4965" x2="72.3864" y2="22.4965" gradientUnits="userSpaceOnUse">
<stop stop-color="white"/>
<stop offset="0.21" stop-color="#FCFCFD"/>
<stop offset="0.36" stop-color="#F4F3F8"/>
<stop offset="0.49" stop-color="#E7E3EF"/>
<stop offset="0.62" stop-color="#D3CCE2"/>
<stop offset="0.73" stop-color="#BAAFD2"/>
<stop offset="0.85" stop-color="#9B8CBD"/>
<stop offset="0.95" stop-color="#7762A6"/>
<stop offset="1" stop-color="#644C99"/>
</linearGradient>
</defs>
</svg>
